<?xml version="1.0" encoding="UTF-8" standalone="no"?>
<svg
   xmlns:dc="http://purl.org/dc/elements/1.1/"
   xmlns:cc="http://creativecommons.org/ns#"
   xmlns:rdf="http://www.w3.org/1999/02/22-rdf-syntax-ns#"
   xmlns:svg="http://www.w3.org/2000/svg"
   xmlns="http://www.w3.org/2000/svg"
   xmlns:sodipodi="http://sodipodi.sourceforge.net/DTD/sodipodi-0.dtd"
   xmlns:inkscape="http://www.inkscape.org/namespaces/inkscape"
   version="1.1"
   id="logo_ameise_23516"
   sodipodi:docname="ameise.svg"
   inkscape:version="1.0.1 (3bc2e813f5, 2020-09-07)"
   width="178.536"
   height="127.031">
  <title
     id="title2">originate ameise</title>
  <desc
     id="desc4">Logo originate GmbH</desc>
  <g
     id="gameise"
     transform="matrix(1,0,0,-1,-14.8439,259.3737)"
	 style="fill: #000">
    <g
       id="g28"
       transform="translate(160.251,201.896)">
      <path
         d="m 0,0 c -1.951,0 -3.534,-1.582 -3.534,-3.534 0,-1.952 1.583,-3.535 3.534,-3.535 1.951,0 3.534,1.583 3.534,3.535 C 3.534,-1.582 1.951,0 0,0"

         id="path30" />
    </g>
    <g
       id="g32"
       transform="translate(160.251,222.5103)">
      <path
         d="M 0,0 C 1.951,0 3.534,1.582 3.534,3.534 3.534,5.486 1.951,7.068 0,7.068 -1.951,7.068 -3.534,5.486 -3.534,3.534 -3.534,1.582 -1.951,0 0,0"
          id="path34" />
    </g>
    <g
       id="g36"
       transform="translate(167.4209,214.8267)">
      <path
         d="m 0,0 h -41.661 c 1.292,10.265 10.058,18.236 20.669,18.236 H 10.277 C 4.61,13.965 0.743,7.436 0,0 m 10.277,-23.465 h -31.269 c -10.605,0 -19.365,7.963 -20.666,18.219 H 0.001 c 0.749,-7.428 4.614,-13.949 10.276,-18.219 m -84.61,-5.007 v 23.224 h 23.224 z m -5.246,-48.764 h -9.529 v 20.817 l 9.529,-9.529 z m -24.306,11.288 9.531,9.529 v -20.817 h -9.531 z m -7.887,48.575 c -3.316,-3.316 -7.557,-5.359 -12.116,-5.928 v 18.047 h 24.235 z m -35.377,12.119 h 6.839 v -12.949 c -0.307,0.274 -0.621,0.537 -0.914,0.83 -3.313,3.311 -5.353,7.545 -5.925,12.119 m 5.925,17.366 c 0.293,0.293 0.607,0.556 0.914,0.83 v -12.95 h -6.838 c 0.571,4.574 2.611,8.808 5.924,12.12 m 6.161,-12.12 v 16.367 c 1.873,0.848 3.867,1.413 5.935,1.674 V -0.008 Z m 5.935,-23.287 c -2.068,0.26 -4.062,0.826 -5.935,1.674 v 16.367 h 5.935 z m 29.476,23.287 h -24.236 v 18.047 c 4.559,-0.569 8.8,-2.611 12.116,-5.928 z m 10.551,-5.24 h 9.522 v -28.47 l -9.522,-9.522 z m 115.06,9.996 v 18.709 h -0.006 v 0.025 h -20.4 v 15.819 h 20.4 v 5.246 H 0.582 V 44.545 H 0.308 V 23.482 h -21.3 C -34.499,23.482 -45.642,13.167 -46.957,0 h -0.287 v -0.003 h -44.48 c -0.016,0 -0.031,-0.004 -0.048,-0.005 h -0.461 l -15.83,15.829 c -4.929,4.929 -11.483,7.644 -18.418,7.644 -6.971,0 -13.524,-2.714 -18.453,-7.643 -4.928,-4.929 -7.643,-11.483 -7.643,-18.453 0,-6.971 2.715,-13.523 7.643,-18.452 4.929,-4.929 11.482,-7.644 18.453,-7.644 6.935,0 13.488,2.715 18.418,7.644 l 13.716,13.717 v -41.628 l -14.783,-14.781 v -13.461 h -4.933 v -5.248 H -69.4 v 5.248 h -4.933 v 13.461 l -13.944,13.942 41.767,41.766 c 2.515,-11.779 12.999,-20.642 25.518,-20.642 h 21.3 v -21.062 h 0.274 v -0.002 h 25.371 v 5.245 h -20.4 v 15.819 h 15.162 v -0.005 h 5.244 v 18.708 h -5.244 v -12.766 c -8.965,2.333 -15.611,10.474 -15.611,20.159 0,9.684 6.646,17.824 15.611,20.156 V 4.748 Z"
         id="path38" />
    </g>
  </g>
</svg>
