<?xml version="1.0" encoding="UTF-8" standalone="no"?>
<svg
   xmlns:dc="http://purl.org/dc/elements/1.1/"
   xmlns:cc="http://creativecommons.org/ns#"
   xmlns:rdf="http://www.w3.org/1999/02/22-rdf-syntax-ns#"
   xmlns:svg="http://www.w3.org/2000/svg"
   xmlns="http://www.w3.org/2000/svg"
   xmlns:sodipodi="http://sodipodi.sourceforge.net/DTD/sodipodi-0.dtd"
   xmlns:inkscape="http://www.inkscape.org/namespaces/inkscape"
   version="1.1"
   id="svg95"
   inkscape:version="1.0.1 (3bc2e813f5, 2020-09-07)"
   sodipodi:docname="originate_schriftzug.svg"
   width="300"
   height="80">
  <defs
     id="defs89" />
  <sodipodi:namedview
     id="base"
     pagecolor="#ffffff"
     bordercolor="#666666"
     borderopacity="1.0"
     inkscape:pageopacity="0.0"
     inkscape:pageshadow="2"
     inkscape:zoom="2.8"
     inkscape:cx="162.32073"
     inkscape:cy="116.12305"
     inkscape:document-units="mm"
     inkscape:current-layer="layer1"
     inkscape:document-rotation="0"
     showgrid="false"
     inkscape:window-width="1920"
     inkscape:window-height="1013"
     inkscape:window-x="-9"
     inkscape:window-y="-9"
     inkscape:window-maximized="1" />
  <metadata
     id="metadata92">
    <rdf:RDF>
      <cc:Work
         rdf:about="">
        <dc:format>image/svg+xml</dc:format>
        <dc:type
           rdf:resource="http://purl.org/dc/dcmitype/StillImage" />
        <dc:title></dc:title>
      </cc:Work>
    </rdf:RDF>
  </metadata>
  <g
     inkscape:label="Ebene 1"
     inkscape:groupmode="layer"
     id="layer1">
    <g
       id="g58"
       transform="matrix(1.4111111,0,0,-1.4111111,2.0127536,88.425979)">
      <g
         id="g40"
         transform="translate(26.2617,25.4165)">
        <path
           d="m 0,0 c -4.345,0 -7.498,3.462 -7.498,8.232 0,4.771 3.153,8.234 7.498,8.234 4.386,0 7.449,-3.386 7.449,-8.234 C 7.449,3.385 4.386,0 0,0 m -0.049,21.068 c -3.56,0 -6.782,-1.275 -9.072,-3.59 -2.3,-2.325 -3.567,-5.608 -3.567,-9.246 0,-3.636 1.267,-6.92 3.567,-9.244 2.29,-2.315 5.512,-3.591 9.072,-3.591 7.352,0 12.689,5.399 12.689,12.835 0,7.438 -5.337,12.836 -12.689,12.836"
           style="fill:#000;fill-opacity:1;fill-rule:nonzero;stroke:none"
           id="path42" />
      </g>
      <g
         id="g44"
         transform="translate(48.6885,41.395)">
        <path
           d="m 0,0 -0.477,4.551 h -4.367 v -24.593 h 4.995 v 12.786 c 0.045,2.339 0.783,4.129 2.191,5.319 1.333,1.15 2.851,1.672 4.913,1.689 V 4.795 C 2.294,4.755 0.634,1.714 0.148,0.401 Z"
           style="fill:#000;fill-opacity:1;fill-rule:nonzero;stroke:none"
           id="path46" />
      </g>
      <path
         d="m 59.863,21.353 h 4.994 v 24.593 h -4.994 z"
         style="fill:#000;fill-opacity:1;fill-rule:nonzero;stroke:none"
         id="path48" />
      <g
         id="g50"
         transform="translate(62.3604,56.6763)">
        <path
           d="m 0,0 c -1.812,0 -3.231,-1.42 -3.231,-3.232 0,-1.757 1.419,-3.134 3.231,-3.134 1.809,0 3.281,1.406 3.281,3.134 C 3.281,-1.45 1.809,0 0,0"
           style="fill:#000;fill-opacity:1;fill-rule:nonzero;stroke:none"
           id="path52" />
      </g>
      <g
         id="g54"
         transform="translate(80.4063,33.0601)">
        <path
           d="m 0,0 c -2.771,0 -4.705,1.914 -4.705,4.656 0,2.815 1.891,4.705 4.705,4.705 2.785,0 4.656,-1.89 4.656,-4.705 C 4.656,1.914 2.742,0 0,0 m -1.919,-11.609 h 4.271 c 2.693,0 4.117,-1.068 4.117,-3.088 0,-2.624 -1.984,-4.069 -5.587,-4.069 -3.857,0 -5.98,1.375 -5.98,3.872 0,1.882 1.189,3.11 3.179,3.285 m 1.968,25.034 c -5.682,0 -9.651,-3.607 -9.651,-8.769 0,-1.851 0.553,-3.594 1.599,-5.037 l 0.057,-0.079 -0.077,-0.059 c -1.145,-0.877 -2.51,-2.468 -2.51,-5.065 0,-2.085 1.154,-3.994 3.087,-5.106 l 0.151,-0.087 -0.151,-0.087 c -1.185,-0.677 -2.597,-1.985 -2.597,-4.372 0,-4.865 3.88,-7.544 10.925,-7.544 6.564,0 10.483,3.132 10.483,8.377 0,4.39 -2.784,6.808 -7.838,6.808 h -6.222 c -1.815,0 -2.942,0.92 -2.942,2.403 0,0.905 0.274,1.637 0.815,2.177 l 0.049,0.05 0.063,-0.029 c 1.386,-0.645 2.986,-0.972 4.759,-0.972 5.566,0 9.455,3.546 9.455,8.622 0,1.315 -0.278,2.586 -0.825,3.78 L 8.613,8.577 h 4.026 v 4.309 L 3.546,12.89 c -1.115,0.355 -2.292,0.535 -3.497,0.535"
           style="fill:#000;fill-opacity:1;fill-rule:nonzero;stroke:none"
           id="path56" />
      </g>
      <path
         d="m 96.393,21.353 h 4.994 v 24.593 h -4.994 z"
         style="fill:#000;fill-opacity:1;fill-rule:nonzero;stroke:none"
         id="path58" />
      <g
         id="g60"
         transform="translate(98.8887,56.6763)">
        <path
           d="m 0,0 c -1.812,0 -3.231,-1.42 -3.231,-3.232 0,-1.757 1.419,-3.134 3.231,-3.134 1.809,0 3.281,1.406 3.281,3.134 C 3.281,-1.45 1.809,0 0,0"
           style="fill:#000;fill-opacity:1;fill-rule:nonzero;stroke:none"
           id="path62" />
      </g>
      <g
         id="g64"
         transform="translate(112.8086,42.6665)">
        <path
           d="m 0,0 -0.15,-0.281 -0.417,3.56 h -4.32 v -24.592 h 4.994 v 13.08 c 0,4.414 1.991,7.155 5.196,7.155 2.781,0 4.312,-1.88 4.312,-5.293 v -14.942 h 5.044 v 15.97 c 0,5.737 -2.967,9.161 -7.936,9.161 C 3.748,3.818 1.298,2.427 0,0"
           style="fill:#000;fill-opacity:1;fill-rule:nonzero;stroke:none"
           id="path66" />
      </g>
      <g
         id="g68"
         transform="translate(145.5518,31.5425)">
        <path
           d="m 0,0 c 0,-1.401 -0.457,-2.926 -1.193,-3.978 -0.955,-1.528 -2.672,-2.442 -4.59,-2.442 -2.179,0 -3.48,1.081 -3.48,2.893 0,2.218 1.624,2.88 3.213,3.233 L 0,1.006 Z m -13.566,6.567 h 4.842 c 0.046,1.968 1.461,3.92 4.558,3.92 C -1.401,10.487 0,8.954 0,5.929 V 4.718 L -0.082,4.703 -7.138,3.429 c -4.823,-0.918 -7.169,-3.274 -7.169,-7.201 0,-4.226 2.866,-6.957 7.299,-6.957 3.187,0 5.816,1.358 7.214,3.724 l 0.161,0.274 0.264,-3.458 H 5.044 V 6.026 c 0,5.666 -3.357,8.916 -9.21,8.916 -5.386,0 -9.151,-3.361 -9.4,-8.375"
           style="fill:#000;fill-opacity:1;fill-rule:nonzero;stroke:none"
           id="path70" />
      </g>
      <g
         id="g72"
         transform="translate(164.0205,52.021)">
        <path
           d="m 0,0 h -5.042 l -0.049,-6.075 h -4.361 v -4.603 h 4.362 l -0.001,-0.1 -0.097,-12.886 c -0.023,-2.515 0.544,-4.322 1.737,-5.525 1.214,-1.226 3.081,-1.822 5.708,-1.822 1.533,0 2.785,0.172 3.722,0.509 v 4.398 c -0.679,-0.214 -1.421,-0.354 -2.693,-0.354 -2.898,0 -3.48,1.5 -3.48,3.922 l 0.097,11.858 h 6.076 v 4.603 h -6.028 z"
           style="fill:#000;fill-opacity:1;fill-rule:nonzero;stroke:none"
           id="path74" />
      </g>
      <g
         id="g76"
         transform="translate(177.4814,35.8032)">
        <path
           d="m 0,0 0.011,0.109 c 0.361,3.718 3.059,6.215 6.714,6.215 3.76,0 6.223,-2.442 6.273,-6.223 L 13,0 Z m 6.774,10.682 c -7.067,0 -12.003,-5.299 -12.003,-12.885 0,-7.648 4.825,-12.786 12.003,-12.786 5.546,0 9.459,2.816 11.036,7.934 h -4.893 c -0.901,-2.276 -3.027,-3.528 -5.996,-3.528 -3.93,0 -6.662,2.594 -6.959,6.608 l -0.008,0.108 h 18.087 v 1.909 c 0,7.914 -4.212,12.64 -11.267,12.64"
           style="fill:#000;fill-opacity:1;fill-rule:nonzero;stroke:none"
           id="path78" />
      </g>
    </g>
  </g>
</svg>
